<svg xmlns="http://www.w3.org/2000/svg" xmlns:xlink="http://www.w3.org/1999/xlink" width="840" height="320.52"><rect width="840" height="320.52" rx="5" ry="5" class="a"></rect><svg y="0%" x="0%"><circle cx="20" cy="20" r="6" class="b"></circle><circle cx="40" cy="20" r="6" class="c"></circle><circle cx="60" cy="20" r="6" class="d"></circle></svg><svg height="260.52" viewBox="0 0 80 26.052" width="800" x="15" xmlns="http://www.w3.org/2000/svg" xmlns:xlink="http://www.w3.org/1999/xlink" y="50"><style>.a{fill:rgb(0,43,54)}.b{fill:#ff5f58}.c{fill:#ffbd2e}.d{fill:#18c132}.e{font-family:'Fira Code',Monaco,Consolas,Menlo,'Bitstream Vera Sans Mono','Powerline Symbols',monospace}.f{fill:rgb(131,148,150);white-space:pre}.g{fill:transparent}.h{fill:rgb(131,148,150)}.j{animation-duration:16.3169712075065s;animation-iteration-count:infinite;animation-name:i;animation-timing-function:steps(1,end)}@keyframes i{0%{transform:translateX(-0px)}0%{transform:translateX(-80px)}0.2%{transform:translateX(-160px)}0.5%{transform:translateX(-240px)}1%{transform:translateX(-320px)}1.2%{transform:translateX(-400px)}1.4%{transform:translateX(-480px)}1.6%{transform:translateX(-560px)}1.8%{transform:translateX(-640px)}2.1%{transform:translateX(-720px)}2.2%{transform:translateX(-800px)}2.5%{transform:translateX(-880px)}2.7%{transform:translateX(-960px)}3.2%{transform:translateX(-1040px)}3.6%{transform:translateX(-1120px)}3.8%{transform:translateX(-1200px)}3.8%{transform:translateX(-1280px)}4.2%{transform:translateX(-1360px)}10.3%{transform:translateX(-1440px)}10.4%{transform:translateX(-1520px)}10.6%{transform:translateX(-1600px)}10.9%{transform:translateX(-1680px)}11.2%{transform:translateX(-1760px)}11.5%{transform:translateX(-1840px)}11.7%{transform:translateX(-1920px)}12%{transform:translateX(-2000px)}12.4%{transform:translateX(-2080px)}12.6%{transform:translateX(-2160px)}13.1%{transform:translateX(-2240px)}13.5%{transform:translateX(-2320px)}13.7%{transform:translateX(-2400px)}13.8%{transform:translateX(-2480px)}14.2%{transform:translateX(-2560px)}14.6%{transform:translateX(-2640px)}15%{transform:translateX(-2720px)}15.1%{transform:translateX(-2800px)}15.6%{transform:translateX(-2880px)}15.9%{transform:translateX(-2960px)}16.4%{transform:translateX(-3040px)}16.7%{transform:translateX(-3120px)}16.7%{transform:translateX(-3200px)}17.1%{transform:translateX(-3280px)}26.3%{transform:translateX(-3360px)}35.6%{transform:translateX(-3440px)}44.8%{transform:translateX(-3520px)}54%{transform:translateX(-3600px)}63.2%{transform:translateX(-3680px)}100%{transform:translateX(-3760px)}}</style><g font-family="&#x27;Fira Code&#x27;,Monaco,Consolas,Menlo,&#x27;Bitstream Vera Sans Mono&#x27;,&#x27;Powerline Symbols&#x27;,monospace" font-size="1.67" class="e"><defs><symbol id="1"><text font-size="1.67" x="0" y="1.67" class="f">&gt;</text></symbol><symbol id="2"><text font-size="1.67" x="0" y="1.67" class="f">&gt;</text><text font-size="1.67" x="2.004" y="1.67" class="f">library(&quot;cli&quot;)</text></symbol><symbol id="3"><text font-size="1.67" x="0" y="1.67" class="f">&gt;</text><text font-size="1.67" x="2.004" y="1.67" class="f">source(&quot;who_am_I.R&quot;)</text></symbol><symbol id="4"><text font-size="1.67" x="0" y="1.67" class="f">👋</text><text font-size="1.67" x="3.006" y="1.67" class="f">Hi,</text><text font-size="1.67" x="7.013999999999999" y="1.67" class="f">my</text><text font-size="1.67" x="10.02" y="1.67" class="f">name</text><text font-size="1.67" x="15.029999999999998" y="1.67" class="f">is</text><text font-size="1.67" x="18.035999999999998" y="1.67" class="f">Andrea.</text></symbol><symbol id="5"><text font-size="1.67" x="0" y="1.67" class="f">👀</text><text font-size="1.67" x="3.006" y="1.67" class="f">What</text><text font-size="1.67" x="8.016" y="1.67" class="f">motivates</text><text font-size="1.67" x="18.035999999999998" y="1.67" class="f">me</text><text font-size="1.67" x="21.041999999999998" y="1.67" class="f">is</text><text font-size="1.67" x="24.048" y="1.67" class="f">that</text><text font-size="1.67" x="29.058" y="1.67" class="f">my</text><text font-size="1.67" x="32.064" y="1.67" class="f">work</text><text font-size="1.67" x="37.074" y="1.67" class="f">can</text><text font-size="1.67" x="41.082" y="1.67" class="f">have</text><text font-size="1.67" x="46.09199999999999" y="1.67" class="f">positive</text><text font-size="1.67" x="55.10999999999999" y="1.67" class="f">impact</text><text font-size="1.67" x="62.123999999999995" y="1.67" class="f">in</text><text font-size="1.67" x="65.13" y="1.67" class="f">people&#x27;s</text><text font-size="1.67" x="74.148" y="1.67" class="f">life.</text></symbol><symbol id="6"><text font-size="1.67" x="0" y="1.67" class="f">🌱</text><text font-size="1.67" x="3.006" y="1.67" class="f">I</text><text font-size="1.67" x="5.01" y="1.67" class="f">always</text><text font-size="1.67" x="12.024" y="1.67" class="f">look</text><text font-size="1.67" x="17.034" y="1.67" class="f">forward</text><text font-size="1.67" x="25.05" y="1.67" class="f">to</text><text font-size="1.67" x="28.055999999999997" y="1.67" class="f">the</text><text font-size="1.67" x="32.064" y="1.67" class="f">next</text><text font-size="1.67" x="37.074" y="1.67" class="f">challenge</text><text font-size="1.67" x="47.093999999999994" y="1.67" class="f">and</text><text font-size="1.67" x="51.102" y="1.67" class="f">growth</text><text font-size="1.67" x="58.116" y="1.67" class="f">opportunity.</text></symbol><symbol id="7"><text font-size="1.67" x="0" y="1.67" class="f">💊</text><text font-size="1.67" x="3.006" y="1.67" class="f">I&#x27;m</text><text font-size="1.67" x="7.013999999999999" y="1.67" class="f">currently</text><text font-size="1.67" x="17.034" y="1.67" class="f">working</text><text font-size="1.67" x="25.05" y="1.67" class="f">on</text><text font-size="1.67" x="28.055999999999997" y="1.67" class="f">applying</text><text font-size="1.67" x="37.074" y="1.67" class="f">multi-omics</text><text font-size="1.67" x="49.098" y="1.67" class="f">integration</text><text font-size="1.67" x="61.12199999999999" y="1.67" class="f">for</text><text font-size="1.67" x="65.13" y="1.67" class="f">targets</text></symbol><symbol id="8"><text font-size="1.67" x="0" y="1.67" class="f">discovery</text><text font-size="1.67" x="10.02" y="1.67" class="f">and</text><text font-size="1.67" x="14.027999999999999" y="1.67" class="f">validation.</text></symbol><symbol id="9"><text font-size="1.67" x="0" y="1.67" class="f">💞</text><text font-size="1.67" x="3.006" y="1.67" class="f">I&#x27;d</text><text font-size="1.67" x="7.013999999999999" y="1.67" class="f">love</text><text font-size="1.67" x="12.024" y="1.67" class="f">to</text><text font-size="1.67" x="15.029999999999998" y="1.67" class="f">collaborate</text><text font-size="1.67" x="27.054" y="1.67" class="f">with</text><text font-size="1.67" x="32.064" y="1.67" class="f">like-minded</text><text font-size="1.67" x="44.087999999999994" y="1.67" class="f">people.</text></symbol><symbol id="10"><text font-size="1.67" x="0" y="1.67" class="f">📫</text><text font-size="1.67" x="3.006" y="1.67" class="f">Want</text><text font-size="1.67" x="8.016" y="1.67" class="f">to</text><text font-size="1.67" x="11.021999999999998" y="1.67" class="f">connect?</text><text font-size="1.67" x="20.04" y="1.67" class="f">Use</text><text font-size="1.67" x="24.048" y="1.67" class="f">the</text><text font-size="1.67" x="28.055999999999997" y="1.67" class="f">badges</text><text font-size="1.67" x="35.06999999999999" y="1.67" class="f">below...</text></symbol><symbol id="a"><rect height="12" width="80" x="0" y="0" class="g"></rect></symbol><symbol id="b"><rect height="2.171" width="1.1022" class="h"></rect></symbol></defs><rect height="26.052" width="80" class="a"></rect><g class="j"><svg x="0" y="0" width="3840"><svg x="0"><use xlink:href="#a"></use><use xlink:href="#b" x="-0.0040000000000000036" y="0"></use></svg><svg x="80"><use xlink:href="#a"></use><use xlink:href="#b" x="1.996" y="0"></use><use xlink:href="#1" y="0"></use></svg><svg x="160"><use xlink:href="#a"></use><use xlink:href="#b" x="2.996" y="0"></use><text font-size="1.67" x="0" y="1.67" class="f">&gt;</text><text font-size="1.67" x="2.004" y="1.67" class="f">l</text></svg><svg x="240"><use xlink:href="#a"></use><use xlink:href="#b" x="3.996" y="0"></use><text font-size="1.67" x="0" y="1.67" class="f">&gt;</text><text font-size="1.67" x="2.004" y="1.67" class="f">li</text></svg><svg x="320"><use xlink:href="#a"></use><use xlink:href="#b" x="4.996" y="0"></use><text font-size="1.67" x="0" y="1.67" class="f">&gt;</text><text font-size="1.67" x="2.004" y="1.67" class="f">lib</text></svg><svg x="400"><use xlink:href="#a"></use><use xlink:href="#b" x="5.996" y="0"></use><text font-size="1.67" x="0" y="1.67" class="f">&gt;</text><text font-size="1.67" x="2.004" y="1.67" class="f">libr</text></svg><svg x="480"><use xlink:href="#a"></use><use xlink:href="#b" x="6.996" y="0"></use><text font-size="1.67" x="0" y="1.67" class="f">&gt;</text><text font-size="1.67" x="2.004" y="1.67" class="f">libra</text></svg><svg x="560"><use xlink:href="#a"></use><use xlink:href="#b" x="7.996" y="0"></use><text font-size="1.67" x="0" y="1.67" class="f">&gt;</text><text font-size="1.67" x="2.004" y="1.67" class="f">librar</text></svg><svg x="640"><use xlink:href="#a"></use><use xlink:href="#b" x="8.996" y="0"></use><text font-size="1.67" x="0" y="1.67" class="f">&gt;</text><text font-size="1.67" x="2.004" y="1.67" class="f">library</text></svg><svg x="720"><use xlink:href="#a"></use><use xlink:href="#b" x="9.996" y="0"></use><text font-size="1.67" x="0" y="1.67" class="f">&gt;</text><text font-size="1.67" x="2.004" y="1.67" class="f">library(</text></svg><svg x="800"><use xlink:href="#a"></use><use xlink:href="#b" x="10.996" y="0"></use><text font-size="1.67" x="0" y="1.67" class="f">&gt;</text><text font-size="1.67" x="2.004" y="1.67" class="f">library(&quot;</text></svg><svg x="880"><use xlink:href="#a"></use><use xlink:href="#b" x="11.996" y="0"></use><text font-size="1.67" x="0" y="1.67" class="f">&gt;</text><text font-size="1.67" x="2.004" y="1.67" class="f">library(&quot;c</text></svg><svg x="960"><use xlink:href="#a"></use><use xlink:href="#b" x="12.996" y="0"></use><text font-size="1.67" x="0" y="1.67" class="f">&gt;</text><text font-size="1.67" x="2.004" y="1.67" class="f">library(&quot;cl</text></svg><svg x="1040"><use xlink:href="#a"></use><use xlink:href="#b" x="13.996" y="0"></use><text font-size="1.67" x="0" y="1.67" class="f">&gt;</text><text font-size="1.67" x="2.004" y="1.67" class="f">library(&quot;cli</text></svg><svg x="1120"><use xlink:href="#a"></use><use xlink:href="#b" x="14.996" y="0"></use><text font-size="1.67" x="0" y="1.67" class="f">&gt;</text><text font-size="1.67" x="2.004" y="1.67" class="f">library(&quot;cli&quot;</text></svg><svg x="1200"><use xlink:href="#a"></use><use xlink:href="#b" x="15.996" y="0"></use><use xlink:href="#2" y="0"></use></svg><svg x="1280"><use xlink:href="#a"></use><use xlink:href="#b" x="-0.0040000000000000036" y="2.146"></use><use xlink:href="#2" y="0"></use></svg><svg x="1360"><use xlink:href="#a"></use><use xlink:href="#b" x="1.996" y="2.146"></use><use xlink:href="#2" y="0"></use><use xlink:href="#1" y="2.171"></use></svg><svg x="1440"><use xlink:href="#a"></use><use xlink:href="#b" x="-0.0040000000000000036" y="4.317"></use><use xlink:href="#2" y="0"></use><use xlink:href="#1" y="2.171"></use></svg><svg x="1520"><use xlink:href="#a"></use><use xlink:href="#b" x="1.996" y="4.317"></use><use xlink:href="#2" y="0"></use><use xlink:href="#1" y="2.171"></use><use xlink:href="#1" y="4.342"></use></svg><svg x="1600"><use xlink:href="#a"></use><use xlink:href="#b" x="2.996" y="4.317"></use><use xlink:href="#2" y="0"></use><use xlink:href="#1" y="2.171"></use><text font-size="1.67" x="0" y="6.012" class="f">&gt;</text><text font-size="1.67" x="2.004" y="6.012" class="f">s</text></svg><svg x="1680"><use xlink:href="#a"></use><use xlink:href="#b" x="3.996" y="4.317"></use><use xlink:href="#2" y="0"></use><use xlink:href="#1" y="2.171"></use><text font-size="1.67" x="0" y="6.012" class="f">&gt;</text><text font-size="1.67" x="2.004" y="6.012" class="f">so</text></svg><svg x="1760"><use xlink:href="#a"></use><use xlink:href="#b" x="4.996" y="4.317"></use><use xlink:href="#2" y="0"></use><use xlink:href="#1" y="2.171"></use><text font-size="1.67" x="0" y="6.012" class="f">&gt;</text><text font-size="1.67" x="2.004" y="6.012" class="f">sou</text></svg><svg x="1840"><use xlink:href="#a"></use><use xlink:href="#b" x="5.996" y="4.317"></use><use xlink:href="#2" y="0"></use><use xlink:href="#1" y="2.171"></use><text font-size="1.67" x="0" y="6.012" class="f">&gt;</text><text font-size="1.67" x="2.004" y="6.012" class="f">sour</text></svg><svg x="1920"><use xlink:href="#a"></use><use xlink:href="#b" x="6.996" y="4.317"></use><use xlink:href="#2" y="0"></use><use xlink:href="#1" y="2.171"></use><text font-size="1.67" x="0" y="6.012" class="f">&gt;</text><text font-size="1.67" x="2.004" y="6.012" class="f">sourc</text></svg><svg x="2000"><use xlink:href="#a"></use><use xlink:href="#b" x="7.996" y="4.317"></use><use xlink:href="#2" y="0"></use><use xlink:href="#1" y="2.171"></use><text font-size="1.67" x="0" y="6.012" class="f">&gt;</text><text font-size="1.67" x="2.004" y="6.012" class="f">source</text></svg><svg x="2080"><use xlink:href="#a"></use><use xlink:href="#b" x="8.996" y="4.317"></use><use xlink:href="#2" y="0"></use><use xlink:href="#1" y="2.171"></use><text font-size="1.67" x="0" y="6.012" class="f">&gt;</text><text font-size="1.67" x="2.004" y="6.012" class="f">source(</text></svg><svg x="2160"><use xlink:href="#a"></use><use xlink:href="#b" x="9.996" y="4.317"></use><use xlink:href="#2" y="0"></use><use xlink:href="#1" y="2.171"></use><text font-size="1.67" x="0" y="6.012" class="f">&gt;</text><text font-size="1.67" x="2.004" y="6.012" class="f">source(&quot;</text></svg><svg x="2240"><use xlink:href="#a"></use><use xlink:href="#b" x="10.996" y="4.317"></use><use xlink:href="#2" y="0"></use><use xlink:href="#1" y="2.171"></use><text font-size="1.67" x="0" y="6.012" class="f">&gt;</text><text font-size="1.67" x="2.004" y="6.012" class="f">source(&quot;w</text></svg><svg x="2320"><use xlink:href="#a"></use><use xlink:href="#b" x="11.996" y="4.317"></use><use xlink:href="#2" y="0"></use><use xlink:href="#1" y="2.171"></use><text font-size="1.67" x="0" y="6.012" class="f">&gt;</text><text font-size="1.67" x="2.004" y="6.012" class="f">source(&quot;wh</text></svg><svg x="2400"><use xlink:href="#a"></use><use xlink:href="#b" x="12.996" y="4.317"></use><use xlink:href="#2" y="0"></use><use xlink:href="#1" y="2.171"></use><text font-size="1.67" x="0" y="6.012" class="f">&gt;</text><text font-size="1.67" x="2.004" y="6.012" class="f">source(&quot;who</text></svg><svg x="2480"><use xlink:href="#a"></use><use xlink:href="#b" x="13.996" y="4.317"></use><use xlink:href="#2" y="0"></use><use xlink:href="#1" y="2.171"></use><text font-size="1.67" x="0" y="6.012" class="f">&gt;</text><text font-size="1.67" x="2.004" y="6.012" class="f">source(&quot;who_</text></svg><svg x="2560"><use xlink:href="#a"></use><use xlink:href="#b" x="14.996" y="4.317"></use><use xlink:href="#2" y="0"></use><use xlink:href="#1" y="2.171"></use><text font-size="1.67" x="0" y="6.012" class="f">&gt;</text><text font-size="1.67" x="2.004" y="6.012" class="f">source(&quot;who_a</text></svg><svg x="2640"><use xlink:href="#a"></use><use xlink:href="#b" x="15.996" y="4.317"></use><use xlink:href="#2" y="0"></use><use xlink:href="#1" y="2.171"></use><text font-size="1.67" x="0" y="6.012" class="f">&gt;</text><text font-size="1.67" x="2.004" y="6.012" class="f">source(&quot;who_am</text></svg><svg x="2720"><use xlink:href="#a"></use><use xlink:href="#b" x="16.996" y="4.317"></use><use xlink:href="#2" y="0"></use><use xlink:href="#1" y="2.171"></use><text font-size="1.67" x="0" y="6.012" class="f">&gt;</text><text font-size="1.67" x="2.004" y="6.012" class="f">source(&quot;who_am_</text></svg><svg x="2800"><use xlink:href="#a"></use><use xlink:href="#b" x="17.996" y="4.317"></use><use xlink:href="#2" y="0"></use><use xlink:href="#1" y="2.171"></use><text font-size="1.67" x="0" y="6.012" class="f">&gt;</text><text font-size="1.67" x="2.004" y="6.012" class="f">source(&quot;who_am_I</text></svg><svg x="2880"><use xlink:href="#a"></use><use xlink:href="#b" x="18.996" y="4.317"></use><use xlink:href="#2" y="0"></use><use xlink:href="#1" y="2.171"></use><text font-size="1.67" x="0" y="6.012" class="f">&gt;</text><text font-size="1.67" x="2.004" y="6.012" class="f">source(&quot;who_am_I.</text></svg><svg x="2960"><use xlink:href="#a"></use><use xlink:href="#b" x="19.996" y="4.317"></use><use xlink:href="#2" y="0"></use><use xlink:href="#1" y="2.171"></use><text font-size="1.67" x="0" y="6.012" class="f">&gt;</text><text font-size="1.67" x="2.004" y="6.012" class="f">source(&quot;who_am_I.R</text></svg><svg x="3040"><use xlink:href="#a"></use><use xlink:href="#b" x="20.996" y="4.317"></use><use xlink:href="#2" y="0"></use><use xlink:href="#1" y="2.171"></use><text font-size="1.67" x="0" y="6.012" class="f">&gt;</text><text font-size="1.67" x="2.004" y="6.012" class="f">source(&quot;who_am_I.R&quot;</text></svg><svg x="3120"><use xlink:href="#a"></use><use xlink:href="#b" x="21.996" y="4.317"></use><use xlink:href="#2" y="0"></use><use xlink:href="#1" y="2.171"></use><use xlink:href="#3" y="4.342"></use></svg><svg x="3200"><use xlink:href="#a"></use><use xlink:href="#b" x="-0.0040000000000000036" y="6.4879999999999995"></use><use xlink:href="#2" y="0"></use><use xlink:href="#1" y="2.171"></use><use xlink:href="#3" y="4.342"></use></svg><svg x="3280"><use xlink:href="#a"></use><use xlink:href="#b" x="-0.0040000000000000036" y="8.658999999999999"></use><use xlink:href="#2" y="0"></use><use xlink:href="#1" y="2.171"></use><use xlink:href="#3" y="4.342"></use><use xlink:href="#4" y="6.513"></use></svg><svg x="3360"><use xlink:href="#a"></use><use xlink:href="#b" x="-0.0040000000000000036" y="10.83"></use><use xlink:href="#2" y="0"></use><use xlink:href="#1" y="2.171"></use><use xlink:href="#3" y="4.342"></use><use xlink:href="#4" y="6.513"></use><use xlink:href="#5" y="8.684"></use></svg><svg x="3440"><use xlink:href="#a"></use><use xlink:href="#b" x="-0.0040000000000000036" y="13.001"></use><use xlink:href="#2" y="0"></use><use xlink:href="#1" y="2.171"></use><use xlink:href="#3" y="4.342"></use><use xlink:href="#4" y="6.513"></use><use xlink:href="#5" y="8.684"></use><use xlink:href="#6" y="10.855"></use></svg><svg x="3520"><use xlink:href="#a"></use><use xlink:href="#b" x="-0.0040000000000000036" y="17.343"></use><use xlink:href="#2" y="0"></use><use xlink:href="#1" y="2.171"></use><use xlink:href="#3" y="4.342"></use><use xlink:href="#4" y="6.513"></use><use xlink:href="#5" y="8.684"></use><use xlink:href="#6" y="10.855"></use><use xlink:href="#7" y="13.026"></use><use xlink:href="#8" y="15.197"></use></svg><svg x="3600"><use xlink:href="#a"></use><use xlink:href="#b" x="-0.0040000000000000036" y="19.514000000000003"></use><use xlink:href="#2" y="0"></use><use xlink:href="#1" y="2.171"></use><use xlink:href="#3" y="4.342"></use><use xlink:href="#4" y="6.513"></use><use xlink:href="#5" y="8.684"></use><use xlink:href="#6" y="10.855"></use><use xlink:href="#7" y="13.026"></use><use xlink:href="#8" y="15.197"></use><use xlink:href="#9" y="17.368"></use></svg><svg x="3680"><use xlink:href="#a"></use><use xlink:href="#b" x="-0.0040000000000000036" y="21.685000000000002"></use><use xlink:href="#2" y="0"></use><use xlink:href="#1" y="2.171"></use><use xlink:href="#3" y="4.342"></use><use xlink:href="#4" y="6.513"></use><use xlink:href="#5" y="8.684"></use><use xlink:href="#6" y="10.855"></use><use xlink:href="#7" y="13.026"></use><use xlink:href="#8" y="15.197"></use><use xlink:href="#9" y="17.368"></use><use xlink:href="#10" y="19.539"></use></svg><svg x="3760"><use xlink:href="#a"></use><use xlink:href="#b" x="-0.0040000000000000036" y="21.685000000000002"></use><use xlink:href="#2" y="0"></use><use xlink:href="#1" y="2.171"></use><use xlink:href="#3" y="4.342"></use><use xlink:href="#4" y="6.513"></use><use xlink:href="#5" y="8.684"></use><use xlink:href="#6" y="10.855"></use><use xlink:href="#7" y="13.026"></use><use xlink:href="#8" y="15.197"></use><use xlink:href="#9" y="17.368"></use><use xlink:href="#10" y="19.539"></use></svg></svg></g></g></svg></svg>